<svg width="30" height="24" viewBox="0 0 30 24" fill="none" xmlns="http://www.w3.org/2000/svg">
<path d="M15.8243 0.243383C15.7102 0.166312 15.5802 0.125671 15.4477 0.125671C15.3153 0.125671 15.1853 0.166312 15.0712 0.243383L1.80469 9.2022L2.55781 10.6722L15.4477 1.96745L28.3377 10.673L29.0908 9.20305L24.3604 6.00902V1.83102C24.3604 1.60489 24.2822 1.38801 24.1429 1.22811C24.0036 1.0682 23.8147 0.97837 23.6177 0.97837H21.3895C21.1925 0.97837 21.0036 1.0682 20.8643 1.22811C20.725 1.38801 20.6468 1.60489 20.6468 1.83102V3.49966L15.8243 0.243383Z" fill="#FFB81C"/>
<path fill-rule="evenodd" clip-rule="evenodd" d="M15.4479 3.53632L5.04984 10.3575V22.2947H1.33623C1.13925 22.2947 0.950331 22.3845 0.811044 22.5444C0.671757 22.7043 0.593506 22.9212 0.593506 23.1473C0.593506 23.3735 0.671757 23.5903 0.811044 23.7502C0.950331 23.9101 1.13925 24 1.33623 24H28.0742C28.2712 24 28.4601 23.9101 28.5994 23.7502C28.7387 23.5903 28.8169 23.3735 28.8169 23.1473C28.8169 22.9212 28.7387 22.7043 28.5994 22.5444C28.4601 22.3845 28.2712 22.2947 28.0742 22.2947H25.846V10.3575L15.4479 3.53632ZM18.4188 22.2947V12.9155H22.8752V22.2947H18.4188ZM16.1907 12.9155H8.02072V18.0314H16.1907V12.9155Z" fill="#3C5896"/>
</svg>
