<svg width="30" height="30" viewBox="0 0 30 30" fill="none" xmlns="http://www.w3.org/2000/svg">
<path d="M8.0363 3.01628C8.1939 2.82819 8.27146 2.5858 8.25235 2.34116C8.23324 2.09652 8.11897 1.86913 7.93407 1.70779C7.74918 1.54646 7.5084 1.46405 7.26342 1.47826C7.01845 1.49246 6.78881 1.60215 6.6238 1.78378L5.0088 3.63378C4.09303 4.68324 3.57535 6.02124 3.5463 7.41378L3.47505 10.8125C3.46992 11.0612 3.56376 11.3017 3.73594 11.4811C3.90812 11.6606 4.14454 11.7643 4.39318 11.7694C4.64182 11.7745 4.88232 11.6807 5.06177 11.5085C5.24122 11.3363 5.34492 11.0999 5.35005 10.8513L5.42005 7.45378C5.44011 6.50094 5.79452 5.58548 6.4213 4.86753L8.0363 3.01628Z" fill="#FFB81C"/>
<path fill-rule="evenodd" clip-rule="evenodd" d="M7.52763 9.625C7.61158 8.28767 8.20203 7.0326 9.17879 6.1153C10.1555 5.19799 11.4452 4.68741 12.7851 4.6875H13.4814V3.75C13.4814 3.41848 13.6131 3.10054 13.8475 2.86612C14.0819 2.6317 14.3999 2.5 14.7314 2.5C15.0629 2.5 15.3808 2.6317 15.6153 2.86612C15.8497 3.10054 15.9814 3.41848 15.9814 3.75V4.6875H16.6776C18.0176 4.68741 19.3072 5.19799 20.284 6.1153C21.2607 7.0326 21.8512 8.28767 21.9351 9.625L22.2114 14.0425C22.3167 15.7268 22.8822 17.3499 23.8464 18.735C24.0456 19.0213 24.1673 19.3543 24.1997 19.7016C24.2321 20.0489 24.1741 20.3987 24.0312 20.717C23.8884 21.0352 23.6657 21.311 23.3847 21.5177C23.1037 21.7243 22.774 21.8548 22.4276 21.8963L18.1689 22.4062V23.75C18.1689 24.6617 17.8067 25.536 17.1621 26.1807C16.5174 26.8253 15.6431 27.1875 14.7314 27.1875C13.8197 27.1875 12.9454 26.8253 12.3007 26.1807C11.656 25.536 11.2939 24.6617 11.2939 23.75V22.4062L7.03513 21.895C6.689 21.8534 6.35952 21.723 6.07869 21.5164C5.79786 21.3098 5.57524 21.0341 5.43245 20.7161C5.28966 20.398 5.23155 20.0485 5.26378 19.7013C5.29601 19.3542 5.41748 19.0213 5.61638 18.735C6.58051 17.3499 7.14604 15.7268 7.25138 14.0425L7.52763 9.62625V9.625ZM13.1689 23.75C13.1689 24.1644 13.3335 24.5618 13.6265 24.8549C13.9196 25.1479 14.317 25.3125 14.7314 25.3125C15.1458 25.3125 15.5432 25.1479 15.8362 24.8549C16.1293 24.5618 16.2939 24.1644 16.2939 23.75V22.8125H13.1689V23.75Z" fill="#3C5896"/>
<path d="M21.5295 1.69375C21.3422 1.85722 21.2275 2.08837 21.2107 2.33637C21.1938 2.58437 21.2761 2.82892 21.4395 3.01625L23.0545 4.86625C23.6811 5.58471 24.0351 6.50064 24.0545 7.45375L24.1257 10.85C24.1283 10.9731 24.155 11.0945 24.2045 11.2073C24.254 11.3201 24.3252 11.422 24.414 11.5072C24.5029 11.5925 24.6077 11.6594 24.7224 11.7042C24.8371 11.7489 24.9595 11.7707 25.0826 11.7681C25.2057 11.7656 25.3271 11.7388 25.4399 11.6894C25.5527 11.6399 25.6546 11.5687 25.7398 11.4798C25.8251 11.391 25.892 11.2862 25.9368 11.1715C25.9815 11.0568 26.0033 10.9344 26.0007 10.8113L25.9295 7.41375C25.9004 6.02122 25.3828 4.68321 24.467 3.63375L22.852 1.78375C22.6885 1.59649 22.4574 1.48181 22.2094 1.46493C21.9614 1.44806 21.7168 1.53036 21.5295 1.69375Z" fill="#FFB81C"/>
</svg>
