<svg width="24" height="16" viewBox="0 0 24 16" fill="none" xmlns="http://www.w3.org/2000/svg">
<path fill-rule="evenodd" clip-rule="evenodd" d="M0 1.32353C0 0.972508 0.12235 0.635863 0.340134 0.387653C0.557918 0.139443 0.853297 0 1.16129 0H19.7419C20.0499 0 20.3453 0.139443 20.5631 0.387653C20.7809 0.635863 20.9032 0.972508 20.9032 1.32353C20.9032 1.67455 20.7809 2.0112 20.5631 2.25941C20.3453 2.50762 20.0499 2.64706 19.7419 2.64706H1.16129C0.853297 2.64706 0.557918 2.50762 0.340134 2.25941C0.12235 2.0112 0 1.67455 0 1.32353Z" fill="#3C5896"/>
<path fill-rule="evenodd" clip-rule="evenodd" d="M3.09668 7.97056C3.09668 7.61954 3.21903 7.2829 3.43681 7.03469C3.6546 6.78648 3.94998 6.64703 4.25797 6.64703H22.8386C23.1466 6.64703 23.442 6.78648 23.6598 7.03469C23.8776 7.2829 23.9999 7.61954 23.9999 7.97056C23.9999 8.32158 23.8776 8.65823 23.6598 8.90644C23.442 9.15465 23.1466 9.29409 22.8386 9.29409H4.25797C3.94998 9.29409 3.6546 9.15465 3.43681 8.90644C3.21903 8.65823 3.09668 8.32158 3.09668 7.97056Z" fill="#FFB81C"/>
<path fill-rule="evenodd" clip-rule="evenodd" d="M0 14.6176C0 14.2666 0.12235 13.9299 0.340134 13.6817C0.557918 13.4335 0.853297 13.2941 1.16129 13.2941H19.7419C20.0499 13.2941 20.3453 13.4335 20.5631 13.6817C20.7809 13.9299 20.9032 14.2666 20.9032 14.6176C20.9032 14.9686 20.7809 15.3053 20.5631 15.5535C20.3453 15.8017 20.0499 15.9411 19.7419 15.9411H1.16129C0.853297 15.9411 0.557918 15.8017 0.340134 15.5535C0.12235 15.3053 0 14.9686 0 14.6176Z" fill="#3C5896"/>
</svg>
