<svg width="30" height="30" viewBox="0 0 30 30" fill="none" xmlns="http://www.w3.org/2000/svg">
<path d="M5.11875 25.0687L9.0825 23.7469L9.77625 24.0938C11.37 24.8888 13.1419 25.3125 15 25.3125C21.2062 25.3125 26.25 20.4263 26.25 15C26.25 9.57375 21.2062 4.6875 15 4.6875C8.79375 4.6875 3.75 9.57375 3.75 15C3.75 17.025 4.48125 19.08 5.82563 20.8369L6.4725 21.6806L5.11688 25.0669L5.11875 25.0687ZM3.79313 27.4875C3.62345 27.5443 3.44105 27.5515 3.26747 27.508C3.09389 27.4645 2.93638 27.3722 2.81354 27.2421C2.69071 27.112 2.60769 26.9494 2.57428 26.7736C2.54087 26.5978 2.55847 26.4161 2.625 26.25L4.335 21.975C2.775 19.9313 1.875 17.4862 1.875 15C1.875 8.78625 7.5 2.8125 15 2.8125C22.5 2.8125 28.125 8.78625 28.125 15C28.125 21.2137 22.5 27.1875 15 27.1875C12.8966 27.1934 10.8208 26.708 8.93813 25.77L3.79313 27.4856V27.4875Z" fill="#3C5896"/>
<path d="M15 16.5C14.803 16.5 14.608 16.4612 14.426 16.3858C14.244 16.3104 14.0786 16.1999 13.9393 16.0607C13.8001 15.9214 13.6896 15.756 13.6142 15.574C13.5388 15.392 13.5 15.197 13.5 15C13.5 14.803 13.5388 14.608 13.6142 14.426C13.6896 14.244 13.8001 14.0786 13.9393 13.9393C14.0786 13.8001 14.244 13.6896 14.426 13.6142C14.608 13.5388 14.803 13.5 15 13.5C15.3978 13.5 15.7794 13.658 16.0607 13.9393C16.342 14.2206 16.5 14.6022 16.5 15C16.5 15.3978 16.342 15.7794 16.0607 16.0607C15.7794 16.342 15.3978 16.5 15 16.5ZM20.625 16.5C20.428 16.5 20.233 16.4612 20.051 16.3858C19.869 16.3104 19.7036 16.1999 19.5643 16.0607C19.4251 15.9214 19.3146 15.756 19.2392 15.574C19.1638 15.392 19.125 15.197 19.125 15C19.125 14.803 19.1638 14.608 19.2392 14.426C19.3146 14.244 19.4251 14.0786 19.5643 13.9393C19.7036 13.8001 19.869 13.6896 20.051 13.6142C20.233 13.5388 20.428 13.5 20.625 13.5C21.0228 13.5 21.4044 13.658 21.6857 13.9393C21.967 14.2206 22.125 14.6022 22.125 15C22.125 15.3978 21.967 15.7794 21.6857 16.0607C21.4044 16.342 21.0228 16.5 20.625 16.5ZM9.375 16.5C9.17802 16.5 8.98296 16.4612 8.80098 16.3858C8.61899 16.3104 8.45363 16.1999 8.31434 16.0607C8.17505 15.9214 8.06456 15.756 7.98918 15.574C7.9138 15.392 7.875 15.197 7.875 15C7.875 14.803 7.9138 14.608 7.98918 14.426C8.06456 14.244 8.17505 14.0786 8.31434 13.9393C8.45363 13.8001 8.61899 13.6896 8.80098 13.6142C8.98296 13.5388 9.17802 13.5 9.375 13.5C9.77283 13.5 10.1544 13.658 10.4357 13.9393C10.717 14.2206 10.875 14.6022 10.875 15C10.875 15.3978 10.717 15.7794 10.4357 16.0607C10.1544 16.342 9.77283 16.5 9.375 16.5Z" fill="#FFB81C"/>
</svg>
