<svg width="31" height="31" viewBox="0 0 31 31" fill="none" xmlns="http://www.w3.org/2000/svg">
<path d="M2.41667 17.4167H12.4167C12.8587 17.4167 13.2826 17.2411 13.5952 16.9285C13.9077 16.6159 14.0833 16.192 14.0833 15.75V2.41667C14.0833 1.97464 13.9077 1.55072 13.5952 1.23816C13.2826 0.925595 12.8587 0.75 12.4167 0.75H2.41667C1.97464 0.75 1.55072 0.925595 1.23816 1.23816C0.925595 1.55072 0.75 1.97464 0.75 2.41667V15.75C0.75 16.192 0.925595 16.6159 1.23816 16.9285C1.55072 17.2411 1.97464 17.4167 2.41667 17.4167ZM0.75 29.0833C0.75 29.5254 0.925595 29.9493 1.23816 30.2618C1.55072 30.5744 1.97464 30.75 2.41667 30.75H12.4167C12.8587 30.75 13.2826 30.5744 13.5952 30.2618C13.9077 29.9493 14.0833 29.5254 14.0833 29.0833V22.4167C14.0833 21.9746 13.9077 21.5507 13.5952 21.2382C13.2826 20.9256 12.8587 20.75 12.4167 20.75H2.41667C1.97464 20.75 1.55072 20.9256 1.23816 21.2382C0.925595 21.5507 0.75 21.9746 0.75 22.4167V29.0833ZM17.4167 29.0833C17.4167 29.5254 17.5923 29.9493 17.9048 30.2618C18.2174 30.5744 18.6413 30.75 19.0833 30.75H29.0833C29.5254 30.75 29.9493 30.5744 30.2618 30.2618C30.5744 29.9493 30.75 29.5254 30.75 29.0833V17.4167C30.75 16.9746 30.5744 16.5507 30.2618 16.2382C29.9493 15.9256 29.5254 15.75 29.0833 15.75H19.0833C18.6413 15.75 18.2174 15.9256 17.9048 16.2382C17.5923 16.5507 17.4167 16.9746 17.4167 17.4167V29.0833ZM19.0833 12.4167H29.0833C29.5254 12.4167 29.9493 12.2411 30.2618 11.9285C30.5744 11.616 30.75 11.192 30.75 10.75V2.41667C30.75 1.97464 30.5744 1.55072 30.2618 1.23816C29.9493 0.925595 29.5254 0.75 29.0833 0.75H19.0833C18.6413 0.75 18.2174 0.925595 17.9048 1.23816C17.5923 1.55072 17.4167 1.97464 17.4167 2.41667V10.75C17.4167 11.192 17.5923 11.616 17.9048 11.9285C18.2174 12.2411 18.6413 12.4167 19.0833 12.4167Z" fill="#3C5896"/>
<rect x="17.0833" y="15.75" width="13.3333" height="14.6667" rx="1" fill="#FFB81C"/>
</svg>
